<mxfile host="app.diagrams.net" modified="2023-12-02T19:33:17.535Z" agent="Mozilla/5.0 (Windows NT 10.0; Win64; x64) AppleWebKit/537.36 (KHTML, like Gecko) Chrome/119.0.0.0 Safari/537.36" etag="IU7YfwgS85uimGPLPkob" version="22.1.5" type="device" pages="2">
  <diagram name="Class diagram" id="kkwO-pewIWoYUGGtHyWf">
    <mxGraphModel dx="1050" dy="542" grid="1" gridSize="10" guides="1" tooltips="1" connect="1" arrows="1" fold="1" page="1" pageScale="1" pageWidth="827" pageHeight="1169" math="0" shadow="0">
      <root>
        <mxCell id="0" />
        <mxCell id="1" parent="0" />
        <mxCell id="g7El3iPqUTkIqsAJiK7x-1" value="PlanetApplication" style="swimlane;fontStyle=0;childLayout=stackLayout;horizontal=1;startSize=30;horizontalStack=0;resizeParent=1;resizeParentMax=0;resizeLast=0;collapsible=1;marginBottom=0;whiteSpace=wrap;html=1;fillColor=#f5f5f5;strokeColor=#666666;fontColor=#333333;" vertex="1" parent="1">
          <mxGeometry x="80" y="40" width="140" height="60" as="geometry" />
        </mxCell>
        <mxCell id="g7El3iPqUTkIqsAJiK7x-5" value="PlanetController" style="swimlane;fontStyle=0;childLayout=stackLayout;horizontal=1;startSize=30;horizontalStack=0;resizeParent=1;resizeParentMax=0;resizeLast=0;collapsible=1;marginBottom=0;whiteSpace=wrap;html=1;" vertex="1" parent="1">
          <mxGeometry x="324" y="130" width="180" height="120" as="geometry" />
        </mxCell>
        <mxCell id="g7El3iPqUTkIqsAJiK7x-9" value="- exoplaneta: Exoplaneta" style="text;strokeColor=#d6b656;fillColor=#fff2cc;align=left;verticalAlign=middle;spacingLeft=4;spacingRight=4;overflow=hidden;points=[[0,0.5],[1,0.5]];portConstraint=eastwest;rotatable=0;whiteSpace=wrap;html=1;gradientColor=#FFFFFF;" vertex="1" parent="g7El3iPqUTkIqsAJiK7x-5">
          <mxGeometry y="30" width="180" height="30" as="geometry" />
        </mxCell>
        <mxCell id="g7El3iPqUTkIqsAJiK7x-6" value="+ exoplaneta()" style="text;strokeColor=#d6b656;fillColor=#fff2cc;align=left;verticalAlign=middle;spacingLeft=4;spacingRight=4;overflow=hidden;points=[[0,0.5],[1,0.5]];portConstraint=eastwest;rotatable=0;whiteSpace=wrap;html=1;gradientColor=#FFFFFF;" vertex="1" parent="g7El3iPqUTkIqsAJiK7x-5">
          <mxGeometry y="60" width="180" height="30" as="geometry" />
        </mxCell>
        <mxCell id="g7El3iPqUTkIqsAJiK7x-7" value="+ exoplanetaUpdate()" style="text;strokeColor=#d6b656;fillColor=#fff2cc;align=left;verticalAlign=middle;spacingLeft=4;spacingRight=4;overflow=hidden;points=[[0,0.5],[1,0.5]];portConstraint=eastwest;rotatable=0;whiteSpace=wrap;html=1;gradientColor=#FFFFFF;" vertex="1" parent="g7El3iPqUTkIqsAJiK7x-5">
          <mxGeometry y="90" width="180" height="30" as="geometry" />
        </mxCell>
        <mxCell id="g7El3iPqUTkIqsAJiK7x-10" value="Exoplaneta" style="swimlane;fontStyle=0;childLayout=stackLayout;horizontal=1;startSize=30;horizontalStack=0;resizeParent=1;resizeParentMax=0;resizeLast=0;collapsible=1;marginBottom=0;whiteSpace=wrap;html=1;" vertex="1" parent="1">
          <mxGeometry x="610" y="270" width="200" height="330" as="geometry" />
        </mxCell>
        <mxCell id="g7El3iPqUTkIqsAJiK7x-11" value="- nombre&amp;gt; String" style="text;strokeColor=#d79b00;fillColor=#ffe6cc;align=left;verticalAlign=middle;spacingLeft=4;spacingRight=4;overflow=hidden;points=[[0,0.5],[1,0.5]];portConstraint=eastwest;rotatable=0;whiteSpace=wrap;html=1;gradientColor=#ffffff;" vertex="1" parent="g7El3iPqUTkIqsAJiK7x-10">
          <mxGeometry y="30" width="200" height="30" as="geometry" />
        </mxCell>
        <mxCell id="g7El3iPqUTkIqsAJiK7x-12" value="- masa: String" style="text;strokeColor=#d79b00;fillColor=#ffe6cc;align=left;verticalAlign=middle;spacingLeft=4;spacingRight=4;overflow=hidden;points=[[0,0.5],[1,0.5]];portConstraint=eastwest;rotatable=0;whiteSpace=wrap;html=1;gradientColor=#ffffff;" vertex="1" parent="g7El3iPqUTkIqsAJiK7x-10">
          <mxGeometry y="60" width="200" height="30" as="geometry" />
        </mxCell>
        <mxCell id="g7El3iPqUTkIqsAJiK7x-13" value="- radio: double" style="text;strokeColor=#d79b00;fillColor=#ffe6cc;align=left;verticalAlign=middle;spacingLeft=4;spacingRight=4;overflow=hidden;points=[[0,0.5],[1,0.5]];portConstraint=eastwest;rotatable=0;whiteSpace=wrap;html=1;gradientColor=#ffffff;" vertex="1" parent="g7El3iPqUTkIqsAJiK7x-10">
          <mxGeometry y="90" width="200" height="30" as="geometry" />
        </mxCell>
        <mxCell id="g7El3iPqUTkIqsAJiK7x-15" value="- gravedad: double" style="text;strokeColor=#d79b00;fillColor=#ffe6cc;align=left;verticalAlign=middle;spacingLeft=4;spacingRight=4;overflow=hidden;points=[[0,0.5],[1,0.5]];portConstraint=eastwest;rotatable=0;whiteSpace=wrap;html=1;gradientColor=#ffffff;" vertex="1" parent="g7El3iPqUTkIqsAJiK7x-10">
          <mxGeometry y="120" width="200" height="30" as="geometry" />
        </mxCell>
        <mxCell id="g7El3iPqUTkIqsAJiK7x-21" value="- satelites: int" style="text;strokeColor=#d79b00;fillColor=#ffe6cc;align=left;verticalAlign=middle;spacingLeft=4;spacingRight=4;overflow=hidden;points=[[0,0.5],[1,0.5]];portConstraint=eastwest;rotatable=0;whiteSpace=wrap;html=1;gradientColor=#ffffff;" vertex="1" parent="g7El3iPqUTkIqsAJiK7x-10">
          <mxGeometry y="150" width="200" height="30" as="geometry" />
        </mxCell>
        <mxCell id="g7El3iPqUTkIqsAJiK7x-14" value="+&amp;nbsp;obtenerCoordenadaExoplaneta" style="text;strokeColor=#9673a6;fillColor=#e1d5e7;align=left;verticalAlign=middle;spacingLeft=4;spacingRight=4;overflow=hidden;points=[[0,0.5],[1,0.5]];portConstraint=eastwest;rotatable=0;whiteSpace=wrap;html=1;" vertex="1" parent="g7El3iPqUTkIqsAJiK7x-10">
          <mxGeometry y="180" width="200" height="30" as="geometry" />
        </mxCell>
        <mxCell id="g7El3iPqUTkIqsAJiK7x-36" value="-&amp;nbsp;interseccionCirculo" style="text;strokeColor=#9673a6;fillColor=#e1d5e7;align=left;verticalAlign=middle;spacingLeft=4;spacingRight=4;overflow=hidden;points=[[0,0.5],[1,0.5]];portConstraint=eastwest;rotatable=0;whiteSpace=wrap;html=1;" vertex="1" parent="g7El3iPqUTkIqsAJiK7x-10">
          <mxGeometry y="210" width="200" height="30" as="geometry" />
        </mxCell>
        <mxCell id="g7El3iPqUTkIqsAJiK7x-33" value="- corregirDesfazaje" style="text;strokeColor=#9673a6;fillColor=#e1d5e7;align=left;verticalAlign=middle;spacingLeft=4;spacingRight=4;overflow=hidden;points=[[0,0.5],[1,0.5]];portConstraint=eastwest;rotatable=0;whiteSpace=wrap;html=1;" vertex="1" parent="g7El3iPqUTkIqsAJiK7x-10">
          <mxGeometry y="240" width="200" height="30" as="geometry" />
        </mxCell>
        <mxCell id="g7El3iPqUTkIqsAJiK7x-35" value="+&amp;nbsp;componerMensaje" style="text;strokeColor=#9673a6;fillColor=#e1d5e7;align=left;verticalAlign=middle;spacingLeft=4;spacingRight=4;overflow=hidden;points=[[0,0.5],[1,0.5]];portConstraint=eastwest;rotatable=0;whiteSpace=wrap;html=1;" vertex="1" parent="g7El3iPqUTkIqsAJiK7x-10">
          <mxGeometry y="270" width="200" height="30" as="geometry" />
        </mxCell>
        <mxCell id="g7El3iPqUTkIqsAJiK7x-34" value="-&amp;nbsp;armarPalabra" style="text;strokeColor=#9673a6;fillColor=#e1d5e7;align=left;verticalAlign=middle;spacingLeft=4;spacingRight=4;overflow=hidden;points=[[0,0.5],[1,0.5]];portConstraint=eastwest;rotatable=0;whiteSpace=wrap;html=1;" vertex="1" parent="g7El3iPqUTkIqsAJiK7x-10">
          <mxGeometry y="300" width="200" height="30" as="geometry" />
        </mxCell>
        <mxCell id="g7El3iPqUTkIqsAJiK7x-18" value="" style="endArrow=none;html=1;rounded=0;entryX=-0.007;entryY=0.733;entryDx=0;entryDy=0;entryPerimeter=0;exitX=1;exitY=0.5;exitDx=0;exitDy=0;" edge="1" parent="1" source="g7El3iPqUTkIqsAJiK7x-9" target="g7El3iPqUTkIqsAJiK7x-12">
          <mxGeometry width="50" height="50" relative="1" as="geometry">
            <mxPoint x="490" y="420" as="sourcePoint" />
            <mxPoint x="540" y="370" as="targetPoint" />
          </mxGeometry>
        </mxCell>
        <mxCell id="g7El3iPqUTkIqsAJiK7x-20" value="Diagrama de clases" style="text;html=1;strokeColor=none;fillColor=none;align=center;verticalAlign=middle;whiteSpace=wrap;rounded=0;fontStyle=1;fontSize=16;" vertex="1" parent="1">
          <mxGeometry x="310" y="30" width="220" height="50" as="geometry" />
        </mxCell>
        <mxCell id="g7El3iPqUTkIqsAJiK7x-22" value="Point" style="swimlane;fontStyle=0;childLayout=stackLayout;horizontal=1;startSize=30;horizontalStack=0;resizeParent=1;resizeParentMax=0;resizeLast=0;collapsible=1;marginBottom=0;whiteSpace=wrap;html=1;fillColor=#f5f5f5;strokeColor=#666666;fontColor=#333333;" vertex="1" parent="1">
          <mxGeometry x="150" y="590" width="130" height="90" as="geometry" />
        </mxCell>
        <mxCell id="g7El3iPqUTkIqsAJiK7x-25" value="- x: double" style="text;strokeColor=#d6b656;fillColor=#fff2cc;align=left;verticalAlign=middle;spacingLeft=4;spacingRight=4;overflow=hidden;points=[[0,0.5],[1,0.5]];portConstraint=eastwest;rotatable=0;whiteSpace=wrap;html=1;gradientColor=#ffffff;" vertex="1" parent="g7El3iPqUTkIqsAJiK7x-22">
          <mxGeometry y="30" width="130" height="30" as="geometry" />
        </mxCell>
        <mxCell id="g7El3iPqUTkIqsAJiK7x-24" value="- y: double" style="text;strokeColor=#d6b656;fillColor=#fff2cc;align=left;verticalAlign=middle;spacingLeft=4;spacingRight=4;overflow=hidden;points=[[0,0.5],[1,0.5]];portConstraint=eastwest;rotatable=0;whiteSpace=wrap;html=1;gradientColor=#ffffff;" vertex="1" parent="g7El3iPqUTkIqsAJiK7x-22">
          <mxGeometry y="60" width="130" height="30" as="geometry" />
        </mxCell>
        <mxCell id="g7El3iPqUTkIqsAJiK7x-37" value="PointEntryComparator" style="swimlane;fontStyle=0;childLayout=stackLayout;horizontal=1;startSize=30;horizontalStack=0;resizeParent=1;resizeParentMax=0;resizeLast=0;collapsible=1;marginBottom=0;whiteSpace=wrap;html=1;fillColor=#f5f5f5;strokeColor=#666666;fontColor=#333333;" vertex="1" parent="1">
          <mxGeometry x="390" y="500" width="140" height="60" as="geometry" />
        </mxCell>
        <mxCell id="g7El3iPqUTkIqsAJiK7x-40" value="+ compare" style="text;strokeColor=#d6b656;fillColor=#fff2cc;align=left;verticalAlign=middle;spacingLeft=4;spacingRight=4;overflow=hidden;points=[[0,0.5],[1,0.5]];portConstraint=eastwest;rotatable=0;whiteSpace=wrap;html=1;gradientColor=#FFFFFF;" vertex="1" parent="g7El3iPqUTkIqsAJiK7x-37">
          <mxGeometry y="30" width="140" height="30" as="geometry" />
        </mxCell>
        <mxCell id="g7El3iPqUTkIqsAJiK7x-38" value="" style="endArrow=none;html=1;rounded=0;entryX=0;entryY=0.5;entryDx=0;entryDy=0;exitX=1;exitY=0.75;exitDx=0;exitDy=0;" edge="1" parent="1" source="g7El3iPqUTkIqsAJiK7x-37" target="g7El3iPqUTkIqsAJiK7x-36">
          <mxGeometry width="50" height="50" relative="1" as="geometry">
            <mxPoint x="510" y="325" as="sourcePoint" />
            <mxPoint x="598" y="362" as="targetPoint" />
          </mxGeometry>
        </mxCell>
        <mxCell id="g7El3iPqUTkIqsAJiK7x-39" value="" style="endArrow=none;html=1;rounded=0;entryX=1;entryY=0.25;entryDx=0;entryDy=0;exitX=0;exitY=0.5;exitDx=0;exitDy=0;" edge="1" parent="1" source="g7El3iPqUTkIqsAJiK7x-37" target="g7El3iPqUTkIqsAJiK7x-22">
          <mxGeometry width="50" height="50" relative="1" as="geometry">
            <mxPoint x="550" y="575" as="sourcePoint" />
            <mxPoint x="600" y="505" as="targetPoint" />
          </mxGeometry>
        </mxCell>
        <mxCell id="g7El3iPqUTkIqsAJiK7x-41" value="Comparator" style="swimlane;fontStyle=0;childLayout=stackLayout;horizontal=1;startSize=30;horizontalStack=0;resizeParent=1;resizeParentMax=0;resizeLast=0;collapsible=1;marginBottom=0;whiteSpace=wrap;html=1;fillColor=#f5f5f5;strokeColor=#666666;fontColor=#333333;" vertex="1" parent="1">
          <mxGeometry x="220" y="470" width="120" height="60" as="geometry" />
        </mxCell>
        <mxCell id="g7El3iPqUTkIqsAJiK7x-42" value="" style="endArrow=none;dashed=1;html=1;dashPattern=1 3;strokeWidth=2;rounded=0;exitX=1;exitY=0.5;exitDx=0;exitDy=0;entryX=0;entryY=0.25;entryDx=0;entryDy=0;" edge="1" parent="1" source="g7El3iPqUTkIqsAJiK7x-41" target="g7El3iPqUTkIqsAJiK7x-37">
          <mxGeometry width="50" height="50" relative="1" as="geometry">
            <mxPoint x="490" y="420" as="sourcePoint" />
            <mxPoint x="540" y="370" as="targetPoint" />
          </mxGeometry>
        </mxCell>
        <mxCell id="g7El3iPqUTkIqsAJiK7x-43" value="TelescopeForm" style="swimlane;fontStyle=0;childLayout=stackLayout;horizontal=1;startSize=30;horizontalStack=0;resizeParent=1;resizeParentMax=0;resizeLast=0;collapsible=1;marginBottom=0;whiteSpace=wrap;html=1;fillColor=#f5f5f5;strokeColor=#666666;fontColor=#333333;" vertex="1" parent="1">
          <mxGeometry x="40" y="130" width="160" height="90" as="geometry" />
        </mxCell>
        <mxCell id="g7El3iPqUTkIqsAJiK7x-49" value="- telescopes: Telescope[]" style="text;strokeColor=#d6b656;fillColor=#fff2cc;align=left;verticalAlign=middle;spacingLeft=4;spacingRight=4;overflow=hidden;points=[[0,0.5],[1,0.5]];portConstraint=eastwest;rotatable=0;whiteSpace=wrap;html=1;gradientColor=#FFFFFF;" vertex="1" parent="g7El3iPqUTkIqsAJiK7x-43">
          <mxGeometry y="30" width="160" height="30" as="geometry" />
        </mxCell>
        <mxCell id="g7El3iPqUTkIqsAJiK7x-50" value="- satellites: Telescope[]" style="text;strokeColor=#d6b656;fillColor=#fff2cc;align=left;verticalAlign=middle;spacingLeft=4;spacingRight=4;overflow=hidden;points=[[0,0.5],[1,0.5]];portConstraint=eastwest;rotatable=0;whiteSpace=wrap;html=1;gradientColor=#FFFFFF;" vertex="1" parent="g7El3iPqUTkIqsAJiK7x-43">
          <mxGeometry y="60" width="160" height="30" as="geometry" />
        </mxCell>
        <mxCell id="g7El3iPqUTkIqsAJiK7x-44" value="" style="endArrow=none;html=1;rounded=0;" edge="1" parent="1" source="g7El3iPqUTkIqsAJiK7x-5" target="g7El3iPqUTkIqsAJiK7x-43">
          <mxGeometry width="50" height="50" relative="1" as="geometry">
            <mxPoint x="510" y="325" as="sourcePoint" />
            <mxPoint x="598" y="362" as="targetPoint" />
          </mxGeometry>
        </mxCell>
        <mxCell id="g7El3iPqUTkIqsAJiK7x-45" value="Response" style="swimlane;fontStyle=0;childLayout=stackLayout;horizontal=1;startSize=30;horizontalStack=0;resizeParent=1;resizeParentMax=0;resizeLast=0;collapsible=1;marginBottom=0;whiteSpace=wrap;html=1;fillColor=#f5f5f5;strokeColor=#666666;fontColor=#333333;" vertex="1" parent="1">
          <mxGeometry x="10" y="350" width="140" height="90" as="geometry" />
        </mxCell>
        <mxCell id="g7El3iPqUTkIqsAJiK7x-8" value="- position: Point" style="text;strokeColor=#d6b656;fillColor=#fff2cc;align=left;verticalAlign=middle;spacingLeft=4;spacingRight=4;overflow=hidden;points=[[0,0.5],[1,0.5]];portConstraint=eastwest;rotatable=0;whiteSpace=wrap;html=1;gradientColor=#FFFFFF;" vertex="1" parent="g7El3iPqUTkIqsAJiK7x-45">
          <mxGeometry y="30" width="140" height="30" as="geometry" />
        </mxCell>
        <mxCell id="g7El3iPqUTkIqsAJiK7x-47" value="- message: String" style="text;strokeColor=#d6b656;fillColor=#fff2cc;align=left;verticalAlign=middle;spacingLeft=4;spacingRight=4;overflow=hidden;points=[[0,0.5],[1,0.5]];portConstraint=eastwest;rotatable=0;whiteSpace=wrap;html=1;gradientColor=#FFFFFF;" vertex="1" parent="g7El3iPqUTkIqsAJiK7x-45">
          <mxGeometry y="60" width="140" height="30" as="geometry" />
        </mxCell>
        <mxCell id="g7El3iPqUTkIqsAJiK7x-46" value="" style="endArrow=none;html=1;rounded=0;exitX=0;exitY=0.5;exitDx=0;exitDy=0;" edge="1" parent="1" source="g7El3iPqUTkIqsAJiK7x-6" target="g7El3iPqUTkIqsAJiK7x-45">
          <mxGeometry width="50" height="50" relative="1" as="geometry">
            <mxPoint x="270" y="290" as="sourcePoint" />
            <mxPoint x="215" y="260" as="targetPoint" />
          </mxGeometry>
        </mxCell>
        <mxCell id="g7El3iPqUTkIqsAJiK7x-48" value="" style="endArrow=none;html=1;rounded=0;entryX=1;entryY=0.5;entryDx=0;entryDy=0;" edge="1" parent="1" source="g7El3iPqUTkIqsAJiK7x-22" target="g7El3iPqUTkIqsAJiK7x-8">
          <mxGeometry width="50" height="50" relative="1" as="geometry">
            <mxPoint x="270" y="325" as="sourcePoint" />
            <mxPoint x="180" y="342" as="targetPoint" />
          </mxGeometry>
        </mxCell>
        <mxCell id="g7El3iPqUTkIqsAJiK7x-51" value="Telescope" style="swimlane;fontStyle=0;childLayout=stackLayout;horizontal=1;startSize=30;horizontalStack=0;resizeParent=1;resizeParentMax=0;resizeLast=0;collapsible=1;marginBottom=0;whiteSpace=wrap;html=1;fillColor=#f5f5f5;strokeColor=#666666;fontColor=#333333;" vertex="1" parent="1">
          <mxGeometry x="290" y="300" width="200" height="150" as="geometry" />
        </mxCell>
        <mxCell id="g7El3iPqUTkIqsAJiK7x-52" value="- name: String" style="text;strokeColor=#d6b656;fillColor=#fff2cc;align=left;verticalAlign=middle;spacingLeft=4;spacingRight=4;overflow=hidden;points=[[0,0.5],[1,0.5]];portConstraint=eastwest;rotatable=0;whiteSpace=wrap;html=1;gradientColor=#FFFFFF;" vertex="1" parent="g7El3iPqUTkIqsAJiK7x-51">
          <mxGeometry y="30" width="200" height="30" as="geometry" />
        </mxCell>
        <mxCell id="g7El3iPqUTkIqsAJiK7x-53" value="- message: String[]" style="text;strokeColor=#d6b656;fillColor=#fff2cc;align=left;verticalAlign=middle;spacingLeft=4;spacingRight=4;overflow=hidden;points=[[0,0.5],[1,0.5]];portConstraint=eastwest;rotatable=0;whiteSpace=wrap;html=1;gradientColor=#FFFFFF;" vertex="1" parent="g7El3iPqUTkIqsAJiK7x-51">
          <mxGeometry y="60" width="200" height="30" as="geometry" />
        </mxCell>
        <mxCell id="g7El3iPqUTkIqsAJiK7x-54" value="- distance: double" style="text;strokeColor=#d6b656;fillColor=#fff2cc;align=left;verticalAlign=middle;spacingLeft=4;spacingRight=4;overflow=hidden;points=[[0,0.5],[1,0.5]];portConstraint=eastwest;rotatable=0;whiteSpace=wrap;html=1;gradientColor=#FFFFFF;" vertex="1" parent="g7El3iPqUTkIqsAJiK7x-51">
          <mxGeometry y="90" width="200" height="30" as="geometry" />
        </mxCell>
        <mxCell id="g7El3iPqUTkIqsAJiK7x-55" value="- location: Point" style="text;strokeColor=#d6b656;fillColor=#fff2cc;align=left;verticalAlign=middle;spacingLeft=4;spacingRight=4;overflow=hidden;points=[[0,0.5],[1,0.5]];portConstraint=eastwest;rotatable=0;whiteSpace=wrap;html=1;gradientColor=#FFFFFF;" vertex="1" parent="g7El3iPqUTkIqsAJiK7x-51">
          <mxGeometry y="120" width="200" height="30" as="geometry" />
        </mxCell>
        <mxCell id="g7El3iPqUTkIqsAJiK7x-56" value="" style="endArrow=none;html=1;rounded=0;exitX=-0.008;exitY=0.088;exitDx=0;exitDy=0;exitPerimeter=0;entryX=0.992;entryY=0.973;entryDx=0;entryDy=0;entryPerimeter=0;" edge="1" parent="1" source="g7El3iPqUTkIqsAJiK7x-51" target="g7El3iPqUTkIqsAJiK7x-49">
          <mxGeometry width="50" height="50" relative="1" as="geometry">
            <mxPoint x="334" y="195" as="sourcePoint" />
            <mxPoint x="210" y="189" as="targetPoint" />
          </mxGeometry>
        </mxCell>
      </root>
    </mxGraphModel>
  </diagram>
  <diagram id="XaBBwhOaEvFyhzUA59GY" name="Sequence">
    <mxGraphModel dx="1050" dy="542" grid="1" gridSize="10" guides="1" tooltips="1" connect="1" arrows="1" fold="1" page="1" pageScale="1" pageWidth="827" pageHeight="1169" math="0" shadow="0">
      <root>
        <mxCell id="0" />
        <mxCell id="1" parent="0" />
        <mxCell id="QndZCUUtyhQ2OQkJ81ik-1" value="Diagrama de Secuencia" style="text;html=1;strokeColor=none;fillColor=none;align=center;verticalAlign=middle;whiteSpace=wrap;rounded=0;fontStyle=1;fontSize=16;" vertex="1" parent="1">
          <mxGeometry x="310" y="30" width="220" height="50" as="geometry" />
        </mxCell>
        <mxCell id="QndZCUUtyhQ2OQkJ81ik-2" value="PlanetController" style="shape=umlLifeline;perimeter=lifelinePerimeter;whiteSpace=wrap;html=1;container=1;dropTarget=0;collapsible=0;recursiveResize=0;outlineConnect=0;portConstraint=eastwest;newEdgeStyle={&quot;curved&quot;:0,&quot;rounded&quot;:0};fillColor=#dae8fc;strokeColor=#6c8ebf;gradientColor=#fdfcfc;" vertex="1" parent="1">
          <mxGeometry x="130" y="100" width="100" height="480" as="geometry" />
        </mxCell>
        <mxCell id="QndZCUUtyhQ2OQkJ81ik-5" value="" style="html=1;points=[[0,0,0,0,5],[0,1,0,0,-5],[1,0,0,0,5],[1,1,0,0,-5]];perimeter=orthogonalPerimeter;outlineConnect=0;targetShapes=umlLifeline;portConstraint=eastwest;newEdgeStyle={&quot;curved&quot;:0,&quot;rounded&quot;:0};fillColor=#fff2cc;strokeColor=#d6b656;gradientColor=#ffe085;" vertex="1" parent="QndZCUUtyhQ2OQkJ81ik-2">
          <mxGeometry x="45" y="60" width="10" height="350" as="geometry" />
        </mxCell>
        <mxCell id="QndZCUUtyhQ2OQkJ81ik-3" value="Actor" style="shape=umlActor;verticalLabelPosition=bottom;verticalAlign=top;html=1;" vertex="1" parent="1">
          <mxGeometry x="30" y="110" width="30" height="60" as="geometry" />
        </mxCell>
        <mxCell id="QndZCUUtyhQ2OQkJ81ik-4" value="topsecret" style="html=1;verticalAlign=bottom;endArrow=block;curved=0;rounded=0;" edge="1" parent="1">
          <mxGeometry width="80" relative="1" as="geometry">
            <mxPoint x="100" y="170" as="sourcePoint" />
            <mxPoint x="170" y="170" as="targetPoint" />
          </mxGeometry>
        </mxCell>
        <mxCell id="QndZCUUtyhQ2OQkJ81ik-6" value="Exoplaneta" style="shape=umlLifeline;perimeter=lifelinePerimeter;whiteSpace=wrap;html=1;container=1;dropTarget=0;collapsible=0;recursiveResize=0;outlineConnect=0;portConstraint=eastwest;newEdgeStyle={&quot;curved&quot;:0,&quot;rounded&quot;:0};fillColor=#dae8fc;strokeColor=#6c8ebf;gradientColor=#fdfcfc;" vertex="1" parent="1">
          <mxGeometry x="340" y="100" width="100" height="490" as="geometry" />
        </mxCell>
        <mxCell id="QndZCUUtyhQ2OQkJ81ik-7" value="" style="html=1;points=[[0,0,0,0,5],[0,1,0,0,-5],[1,0,0,0,5],[1,1,0,0,-5]];perimeter=orthogonalPerimeter;outlineConnect=0;targetShapes=umlLifeline;portConstraint=eastwest;newEdgeStyle={&quot;curved&quot;:0,&quot;rounded&quot;:0};fillColor=#fff2cc;gradientColor=#ffd966;strokeColor=#d6b656;" vertex="1" parent="QndZCUUtyhQ2OQkJ81ik-6">
          <mxGeometry x="45" y="60" width="10" height="40" as="geometry" />
        </mxCell>
        <mxCell id="QndZCUUtyhQ2OQkJ81ik-10" value="" style="html=1;points=[[0,0,0,0,5],[0,1,0,0,-5],[1,0,0,0,5],[1,1,0,0,-5]];perimeter=orthogonalPerimeter;outlineConnect=0;targetShapes=umlLifeline;portConstraint=eastwest;newEdgeStyle={&quot;curved&quot;:0,&quot;rounded&quot;:0};fillColor=#fff2cc;gradientColor=#ffd966;strokeColor=#d6b656;" vertex="1" parent="QndZCUUtyhQ2OQkJ81ik-6">
          <mxGeometry x="45" y="230" width="10" height="40" as="geometry" />
        </mxCell>
        <mxCell id="QndZCUUtyhQ2OQkJ81ik-8" value="obtenerUbicacion" style="html=1;verticalAlign=bottom;endArrow=block;curved=0;rounded=0;" edge="1" parent="1" target="QndZCUUtyhQ2OQkJ81ik-6">
          <mxGeometry width="80" relative="1" as="geometry">
            <mxPoint x="200" y="180" as="sourcePoint" />
            <mxPoint x="270" y="180" as="targetPoint" />
          </mxGeometry>
        </mxCell>
        <mxCell id="QndZCUUtyhQ2OQkJ81ik-9" value="componerMensaje" style="html=1;verticalAlign=bottom;endArrow=block;curved=0;rounded=0;" edge="1" parent="1" source="QndZCUUtyhQ2OQkJ81ik-2" target="QndZCUUtyhQ2OQkJ81ik-10">
          <mxGeometry width="80" relative="1" as="geometry">
            <mxPoint x="255" y="330" as="sourcePoint" />
            <mxPoint x="355" y="330" as="targetPoint" />
          </mxGeometry>
        </mxCell>
        <mxCell id="QndZCUUtyhQ2OQkJ81ik-12" value="" style="html=1;points=[[0,0,0,0,5],[0,1,0,0,-5],[1,0,0,0,5],[1,1,0,0,-5]];perimeter=orthogonalPerimeter;outlineConnect=0;targetShapes=umlLifeline;portConstraint=eastwest;newEdgeStyle={&quot;curved&quot;:0,&quot;rounded&quot;:0};fillColor=#fff2cc;gradientColor=#ffd966;strokeColor=#d6b656;" vertex="1" parent="1">
          <mxGeometry x="385" y="224" width="10" height="40" as="geometry" />
        </mxCell>
        <mxCell id="QndZCUUtyhQ2OQkJ81ik-13" value="interseccionCirculo" style="html=1;align=left;spacingLeft=2;endArrow=block;rounded=0;edgeStyle=orthogonalEdgeStyle;curved=0;rounded=0;" edge="1" target="QndZCUUtyhQ2OQkJ81ik-12" parent="1">
          <mxGeometry relative="1" as="geometry">
            <mxPoint x="390" y="208" as="sourcePoint" />
            <Array as="points">
              <mxPoint x="420" y="238" />
            </Array>
          </mxGeometry>
        </mxCell>
        <mxCell id="QndZCUUtyhQ2OQkJ81ik-14" value="PointEntryComparator" style="shape=umlLifeline;perimeter=lifelinePerimeter;whiteSpace=wrap;html=1;container=1;dropTarget=0;collapsible=0;recursiveResize=0;outlineConnect=0;portConstraint=eastwest;newEdgeStyle={&quot;curved&quot;:0,&quot;rounded&quot;:0};fillColor=#dae8fc;strokeColor=#6c8ebf;" vertex="1" parent="1">
          <mxGeometry x="543" y="100" width="140" height="300" as="geometry" />
        </mxCell>
        <mxCell id="QndZCUUtyhQ2OQkJ81ik-16" value="" style="html=1;points=[[0,0,0,0,5],[0,1,0,0,-5],[1,0,0,0,5],[1,1,0,0,-5]];perimeter=orthogonalPerimeter;outlineConnect=0;targetShapes=umlLifeline;portConstraint=eastwest;newEdgeStyle={&quot;curved&quot;:0,&quot;rounded&quot;:0};fillColor=#fff2cc;gradientColor=#ffd966;strokeColor=#d6b656;" vertex="1" parent="QndZCUUtyhQ2OQkJ81ik-14">
          <mxGeometry x="64" y="155" width="10" height="40" as="geometry" />
        </mxCell>
        <mxCell id="QndZCUUtyhQ2OQkJ81ik-17" value="compare" style="html=1;verticalAlign=bottom;endArrow=block;curved=0;rounded=0;" edge="1" parent="1">
          <mxGeometry width="80" relative="1" as="geometry">
            <mxPoint x="410" y="270" as="sourcePoint" />
            <mxPoint x="600" y="270" as="targetPoint" />
          </mxGeometry>
        </mxCell>
        <mxCell id="QndZCUUtyhQ2OQkJ81ik-18" value="" style="html=1;points=[[0,0,0,0,5],[0,1,0,0,-5],[1,0,0,0,5],[1,1,0,0,-5]];perimeter=orthogonalPerimeter;outlineConnect=0;targetShapes=umlLifeline;portConstraint=eastwest;newEdgeStyle={&quot;curved&quot;:0,&quot;rounded&quot;:0};fillColor=#fff2cc;gradientColor=#ffd966;strokeColor=#d6b656;" vertex="1" parent="1">
          <mxGeometry x="384" y="391" width="10" height="40" as="geometry" />
        </mxCell>
        <mxCell id="QndZCUUtyhQ2OQkJ81ik-19" value="corregirDesfazaje" style="html=1;align=left;spacingLeft=2;endArrow=block;rounded=0;edgeStyle=orthogonalEdgeStyle;curved=0;rounded=0;" edge="1" parent="1" target="QndZCUUtyhQ2OQkJ81ik-18">
          <mxGeometry relative="1" as="geometry">
            <mxPoint x="389" y="375" as="sourcePoint" />
            <Array as="points">
              <mxPoint x="419" y="405" />
            </Array>
          </mxGeometry>
        </mxCell>
        <mxCell id="QndZCUUtyhQ2OQkJ81ik-20" value="" style="html=1;points=[[0,0,0,0,5],[0,1,0,0,-5],[1,0,0,0,5],[1,1,0,0,-5]];perimeter=orthogonalPerimeter;outlineConnect=0;targetShapes=umlLifeline;portConstraint=eastwest;newEdgeStyle={&quot;curved&quot;:0,&quot;rounded&quot;:0};fillColor=#fff2cc;gradientColor=#ffd966;strokeColor=#d6b656;" vertex="1" parent="1">
          <mxGeometry x="384" y="460" width="10" height="40" as="geometry" />
        </mxCell>
        <mxCell id="QndZCUUtyhQ2OQkJ81ik-21" value="aramarPalabra" style="html=1;align=left;spacingLeft=2;endArrow=block;rounded=0;edgeStyle=orthogonalEdgeStyle;curved=0;rounded=0;" edge="1" parent="1" target="QndZCUUtyhQ2OQkJ81ik-20">
          <mxGeometry relative="1" as="geometry">
            <mxPoint x="389" y="444" as="sourcePoint" />
            <Array as="points">
              <mxPoint x="419" y="474" />
            </Array>
          </mxGeometry>
        </mxCell>
        <mxCell id="QndZCUUtyhQ2OQkJ81ik-22" value="return" style="html=1;verticalAlign=bottom;endArrow=open;dashed=1;endSize=8;curved=0;rounded=0;" edge="1" parent="1" target="QndZCUUtyhQ2OQkJ81ik-2">
          <mxGeometry relative="1" as="geometry">
            <mxPoint x="390" y="520" as="sourcePoint" />
            <mxPoint x="310" y="520" as="targetPoint" />
          </mxGeometry>
        </mxCell>
      </root>
    </mxGraphModel>
  </diagram>
</mxfile>
